<?xml version="1.0" encoding="UTF-8" standalone="no"?>
<!-- Created with Inkscape (http://www.inkscape.org/) -->

<svg
   xmlns:dc="http://purl.org/dc/elements/1.1/"
   xmlns:cc="http://creativecommons.org/ns#"
   xmlns:rdf="http://www.w3.org/1999/02/22-rdf-syntax-ns#"
   xmlns:svg="http://www.w3.org/2000/svg"
   xmlns="http://www.w3.org/2000/svg"
   xmlns:sodipodi="http://sodipodi.sourceforge.net/DTD/sodipodi-0.dtd"
   xmlns:inkscape="http://www.inkscape.org/namespaces/inkscape"
   width="91.579399mm"
   height="154.09212mm"
   viewBox="0 0 324.49393 545.99569"
   id="svg4308"
   version="1.1"
   inkscape:version="0.91 r13725"
   sodipodi:docname="icon.svg">
  <defs
     id="defs4310">
    <clipPath
       clipPathUnits="userSpaceOnUse"
       id="clipPath26">
      <path
         d="m 37.5391,6923.42 931.0389,-2407.4 891.132,2407.4 -1822.1709,0 z"
         id="path28"
         inkscape:connector-curvature="0" />
    </clipPath>
  </defs>
  <sodipodi:namedview
     id="base"
     pagecolor="#ffffff"
     bordercolor="#666666"
     borderopacity="1.0"
     inkscape:pageopacity="0.0"
     inkscape:pageshadow="2"
     inkscape:zoom="0.70710678"
     inkscape:cx="-63.592231"
     inkscape:cy="248.03944"
     inkscape:document-units="px"
     inkscape:current-layer="layer1"
     showgrid="false"
     showguides="false"
     inkscape:window-width="1613"
     inkscape:window-height="1110"
     inkscape:window-x="2041"
     inkscape:window-y="115"
     inkscape:window-maximized="0"
     fit-margin-top="0"
     fit-margin-left="0"
     fit-margin-right="0"
     fit-margin-bottom="0">
    <inkscape:grid
       type="xygrid"
       id="grid5207"
       originx="-211.61018"
       originy="-363.82332" />
  </sodipodi:namedview>
  <metadata
     id="metadata4313">
    <rdf:RDF>
      <cc:Work
         rdf:about="">
        <dc:format>image/svg+xml</dc:format>
        <dc:type
           rdf:resource="http://purl.org/dc/dcmitype/StillImage" />
        <dc:title></dc:title>
      </cc:Work>
    </rdf:RDF>
  </metadata>
  <g
     inkscape:label="Layer 1"
     inkscape:groupmode="layer"
     id="layer1"
     transform="translate(-211.61018,-142.54319)">
    <g
       transform="matrix(0.125,0,0,-0.125,261.42193,1253.0414)"
       id="g22">
      <g
         id="g24"
         clip-path="url(#clipPath26)">
        <path
           d="m 37.5391,6923.42 931.0389,-2407.4 891.132,2407.4 -1822.1709,0"
           style="fill:#f8a43a;fill-opacity:1;fill-rule:nonzero;stroke:none"
           id="path30"
           inkscape:connector-curvature="0" />
        <path
           d="m 1243.63,4384.11 78.8594,0 0,2418.33 -78.8594,0 0,-2418.33 z"
           style="fill:#f6ca95;fill-opacity:1;fill-rule:nonzero;stroke:none"
           id="path32"
           inkscape:connector-curvature="0" />
        <path
           d="m 939.18,4430.95 78.8594,0 0,2418.33 -78.8594,0 0,-2418.33 z"
           style="fill:#f6ca95;fill-opacity:1;fill-rule:nonzero;stroke:none"
           id="path34"
           inkscape:connector-curvature="0" />
        <path
           d="m 247.551,4384.11 78.8555,0 0,2418.33 -78.8555,0 0,-2418.33 z"
           style="fill:#f6ca95;fill-opacity:1;fill-rule:nonzero;stroke:none"
           id="path36"
           inkscape:connector-curvature="0" />
        <path
           d="m 580.063,4384.11 78.8594,0 0,2418.33 -78.8594,0 0,-2418.33 z"
           style="fill:#f6ca95;fill-opacity:1;fill-rule:nonzero;stroke:none"
           id="path38"
           inkscape:connector-curvature="0" />
        <path
           d="m 1602.27,4384.11 78.8594,0 0,2418.33 -78.8594,0 0,-2418.33 z"
           style="fill:#f6ca95;fill-opacity:1;fill-rule:nonzero;stroke:none"
           id="path40"
           inkscape:connector-curvature="0" />
        <path
           d="m 168.723,5984.74 1622.67,0 0,78.8594 -1622.67,0 0,-78.8594 z"
           style="fill:#f6ca95;fill-opacity:1;fill-rule:nonzero;stroke:none"
           id="path42"
           inkscape:connector-curvature="0" />
        <path
           d="m 137.297,5680.29 1622.66,0 0,78.8516 -1622.66,0 0,-78.8516 z"
           style="fill:#f6ca95;fill-opacity:1;fill-rule:nonzero;stroke:none"
           id="path44"
           inkscape:connector-curvature="0" />
        <path
           d="m 168.723,4988.66 1622.67,0 0,78.8594 -1622.67,0 0,-78.8594 z"
           style="fill:#f6ca95;fill-opacity:1;fill-rule:nonzero;stroke:none"
           id="path46"
           inkscape:connector-curvature="0" />
        <path
           d="m 168.723,5321.17 1622.67,0 0,78.8594 -1622.67,0 0,-78.8594 z"
           style="fill:#f6ca95;fill-opacity:1;fill-rule:nonzero;stroke:none"
           id="path48"
           inkscape:connector-curvature="0" />
        <path
           d="m 168.723,6343.38 1622.67,0 0,78.8594 -1622.67,0 0,-78.8594 z"
           style="fill:#f6ca95;fill-opacity:1;fill-rule:nonzero;stroke:none"
           id="path50"
           inkscape:connector-curvature="0" />
      </g>
    </g>
    <path
       d="m 397.53268,321.21997 c 0,51.34125 -41.62,92.96125 -92.96125,92.96125 -51.34125,0 -92.96125,-41.62 -92.96125,-92.96125 0,-51.34125 41.62,-92.9625 92.96125,-92.9625 51.34125,0 92.96125,41.62125 92.96125,92.9625"
       style="fill:#f9a7a8;fill-opacity:1;fill-rule:nonzero;stroke:none"
       id="path108"
       inkscape:connector-curvature="0" />
    <path
       d="m 536.10411,336.21997 c 0,51.34125 -41.62,92.96125 -92.96125,92.96125 -51.34125,0 -92.96125,-41.62 -92.96125,-92.96125 0,-51.34125 41.62,-92.9625 92.96125,-92.9625 51.34125,0 92.96125,41.62125 92.96125,92.9625"
       style="fill:#f9a7a8;fill-opacity:1;fill-rule:nonzero;stroke:none"
       id="path108-3"
       inkscape:connector-curvature="0" />
    <path
       d="m 476.81839,235.50569 c 0,51.34125 -41.62,92.96125 -92.96125,92.96125 -51.34125,0 -92.96125,-41.62 -92.96125,-92.96125 0,-51.34125 41.62,-92.9625 92.96125,-92.9625 51.34125,0 92.96125,41.62125 92.96125,92.9625"
       style="fill:#f9a7a8;fill-opacity:1;fill-rule:nonzero;stroke:none"
       id="path108-6"
       inkscape:connector-curvature="0" />
    <g
       id="g123"
       transform="matrix(1.3689688,0,0,1.3689688,-407.29924,-67.160687)">
      <g
         id="g125">
        <circle
           cx="523.48499"
           cy="257.439"
           r="10.439"
           id="circle127" />
        <circle
           cx="625.48499"
           cy="257.439"
           r="10.439"
           id="circle129" />
      </g>
      <g
         id="g131">
        <path
           d="m 527,290 c 0,6.075 -4.925,11 -11,11 l -6,0 c -6.075,0 -11,-4.925 -11,-11 l 0,0 c 0,-6.075 4.925,-11 11,-11 l 6,0 c 6.075,0 11,4.925 11,11 l 0,0 z"
           id="path133"
           inkscape:connector-curvature="0"
           style="fill:#fa7472" />
        <path
           d="m 650,290 c 0,6.075 -4.925,11 -11,11 l -6,0 c -6.075,0 -11,-4.925 -11,-11 l 0,0 c 0,-6.075 4.925,-11 11,-11 l 6,0 c 6.075,0 11,4.925 11,11 l 0,0 z"
           id="path135"
           inkscape:connector-curvature="0"
           style="fill:#fa7472" />
      </g>
      <g
         id="g137">
        <path
           d="m 542,275 0,0.629 c 0.008,-0.211 0.02,-0.422 0.044,-0.629 L 542,275 Z"
           id="path139"
           inkscape:connector-curvature="0" />
        <path
           d="m 565.494,290 -15.58,0 c -4.221,0 -7.67,-13.066 -7.914,-14.013 l 0,3.513 c 0,8.898 3.58,16.959 9.373,22.828 3.027,-5.651 8.047,-10.074 14.121,-12.328 z"
           id="path141"
           inkscape:connector-curvature="0" />
        <path
           d="m 607,275 -0.074,0 c 0.035,0.305 0.059,0.614 0.059,0.929 0,0 -3.549,14.071 -7.928,14.071 l -15.181,0 c 5.985,2.221 10.948,6.547 13.987,12.08 5.652,-5.848 9.137,-13.805 9.137,-22.58 l 0,-4.5 z"
           id="path143"
           inkscape:connector-curvature="0" />
        <path
           d="m 541.984,275.929 c 0,0 0.006,0.023 0.016,0.059 l 0,-0.358 c -0.004,0.099 -0.016,0.198 -0.016,0.299 z"
           id="path145"
           inkscape:connector-curvature="0" />
        <path
           d="m 599.057,268 -49.143,0 c -4.064,0 -7.41,3.06 -7.87,7 l 64.882,0 c -0.461,-3.94 -3.806,-7 -7.869,-7 z"
           id="path147"
           inkscape:connector-curvature="0" />
        <path
           d="m 549.914,290 15.58,0 c 2.863,-1.063 5.959,-1.645 9.191,-1.645 3.232,0 6.328,0.582 9.19,1.645 l 15.181,0 c 4.379,0 7.928,-14.071 7.928,-14.071 0,-0.314 -0.023,-0.624 -0.059,-0.929 l -64.882,0 c -0.024,0.207 -0.036,0.418 -0.044,0.629 l 0,0.358 c 0.245,0.947 3.694,14.013 7.915,14.013 z"
           id="path149"
           inkscape:connector-curvature="0" />
        <path
           d="m 583.876,290 -18.382,0 c -6.074,2.254 -11.094,6.677 -14.121,12.328 5.894,5.97 14.076,9.672 23.127,9.672 9.174,0 17.453,-3.807 23.363,-9.92 -3.039,-5.533 -8.002,-9.859 -13.987,-12.08 z"
           id="path151"
           inkscape:connector-curvature="0"
           style="fill:#fa7472" />
        <path
           d="m 565.494,290 18.382,0 c -2.862,-1.063 -5.958,-1.645 -9.19,-1.645 -3.232,0 -6.329,0.583 -9.192,1.645 z"
           id="path153"
           inkscape:connector-curvature="0"
           style="fill:#fa7472" />
      </g>
    </g>
    <ellipse
       style="opacity:1;fill:#f9a7a8;fill-opacity:1;fill-rule:nonzero;stroke-width:0;stroke-miterlimit:4;stroke-dasharray:none"
       id="path5297"
       cx="307.61176"
       cy="285.13104"
       rx="18.687822"
       ry="16.667517" />
    <ellipse
       style="opacity:1;fill:#f9a7a8;fill-opacity:1;fill-rule:nonzero;stroke-width:0;stroke-miterlimit:4;stroke-dasharray:none"
       id="path5299"
       cx="451.5585"
       cy="287.65643"
       rx="21.213203"
       ry="19.192898" />
    <circle
       style="opacity:1;fill:#000000;fill-opacity:1;fill-rule:nonzero;stroke-width:0;stroke-miterlimit:4;stroke-dasharray:none"
       id="path5301"
       cx="317.1879"
       cy="268.44321"
       r="15.152288" />
    <circle
       style="opacity:1;fill:#000000;fill-opacity:1;fill-rule:nonzero;stroke-width:0;stroke-miterlimit:4;stroke-dasharray:none"
       id="path5301-7"
       cx="441.47726"
       cy="268.46353"
       r="15.152288" />
    <path
       style="fill:none;fill-rule:evenodd;stroke:#000000;stroke-width:1px;stroke-linecap:butt;stroke-linejoin:miter;stroke-opacity:1"
       d="m 364.68537,329.70402 c -6.71374,-0.37605 -14.35233,-0.41908 -21.08693,-0.12627 -4.49886,-4.278 -8.62646,-12.48068 -7.95495,-20.20305 l 87.25193,0.12627 0,4.41942"
       id="path5353"
       inkscape:connector-curvature="0" />
    <path
       style="fill:none;fill-rule:evenodd;stroke:#000000;stroke-width:1px;stroke-linecap:butt;stroke-linejoin:miter;stroke-opacity:1"
       d="m 422.89542,313.92039 c -6.14311,16.87018 -9.1488,16.53875 -29.4207,15.65736"
       id="path5355"
       inkscape:connector-curvature="0" />
    <path
       style="fill:none;fill-rule:evenodd;stroke:#000000;stroke-width:1px;stroke-linecap:butt;stroke-linejoin:miter;stroke-opacity:1"
       d="m 418.22346,325.41087 c -1.94431,2.85956 -3.0075,4.17038 -7.32361,4.54569"
       id="path5357"
       inkscape:connector-curvature="0" />
    <rect
       style="opacity:1;fill:#000000;fill-opacity:1;fill-rule:nonzero;stroke-width:0;stroke-miterlimit:4;stroke-dasharray:none"
       id="rect5361"
       width="2.3517613"
       height="0.41037446"
       x="364.44861"
       y="329.57776"
       rx="6.0738301"
       ry="0.20476501" />
    <rect
       style="opacity:1;fill:#000000;fill-opacity:1;fill-rule:nonzero;stroke-width:0;stroke-miterlimit:4;stroke-dasharray:none"
       id="rect5363"
       width="2.0518723"
       height="0.44194174"
       x="392.11734"
       y="329.54617"
       rx="6.0738301"
       ry="0.20476501" />
    <rect
       style="opacity:1;fill:#000000;fill-opacity:1;fill-rule:nonzero;stroke-width:0;stroke-miterlimit:4;stroke-dasharray:none"
       id="rect5369"
       width="18.940361"
       height="5.8083773"
       x="342.20947"
       y="325.28461"
       rx="6.0738301"
       ry="0.20476501" />
    <path
       style="opacity:1;fill:#fa7472;fill-opacity:1;fill-rule:nonzero;stroke:#ff0000;stroke-width:0;stroke-miterlimit:4;stroke-dasharray:none"
       id="path6135"
       sodipodi:type="arc"
       sodipodi:cx="367.77679"
       sodipodi:cy="338.33542"
       sodipodi:rx="2.1875"
       sodipodi:ry="2.3214285"
       sodipodi:start="0"
       sodipodi:end="0.092166824"
       sodipodi:open="true"
       d="m 369.96429,338.33542 a 2.1875,2.3214285 0 0 1 -0.009,0.21365" />
    <rect
       style="opacity:1;fill:#fa7472;fill-opacity:1;fill-rule:nonzero;stroke:#ff0000;stroke-width:0;stroke-miterlimit:4;stroke-dasharray:none"
       id="rect6143"
       width="14.931318"
       height="0.18940784"
       x="377.12289"
       y="329.79874"
       rx="3.5776339"
       ry="0.046650078" />
  </g>
</svg>
